<svg width="22" height="22" viewBox="0 0 22 22" fill="none" xmlns="http://www.w3.org/2000/svg">
<path fill-rule="evenodd" clip-rule="evenodd" d="M16.3334 3.1429V3.38001C17.8729 3.50409 19.4062 3.68251 20.9295 3.91482C21.0445 3.93238 21.1545 3.96973 21.2531 4.02475C21.3518 4.07976 21.4372 4.15136 21.5044 4.23546C21.5716 4.31955 21.6194 4.4145 21.6451 4.51487C21.6707 4.61524 21.6736 4.71908 21.6537 4.82045C21.6337 4.92182 21.5914 5.01874 21.5289 5.10567C21.4665 5.19261 21.3853 5.26785 21.2899 5.32712C21.1944 5.38638 21.0867 5.4285 20.9728 5.45107C20.8589 5.47365 20.7411 5.47623 20.6261 5.45867L20.3784 5.42211L19.1873 19.0744C19.1186 19.8615 18.7154 20.5968 18.0581 21.1333C17.4009 21.6697 16.5382 21.9677 15.6424 21.9678H6.35886C5.46309 21.9677 4.60035 21.6697 3.94313 21.1333C3.28591 20.5968 2.88265 19.8615 2.81397 19.0744L1.62168 5.42211L1.37397 5.45867C1.25896 5.47623 1.14114 5.47365 1.02725 5.45107C0.913365 5.4285 0.805638 5.38638 0.71022 5.32712C0.517516 5.20743 0.386653 5.02517 0.346419 4.82045C0.306184 4.61572 0.359875 4.40529 0.495679 4.23546C0.631483 4.06562 0.838276 3.95028 1.07057 3.91482C2.59384 3.68223 4.12714 3.50381 5.66671 3.38001V3.1429C5.66671 1.50923 7.10434 0.113708 9.00419 0.0604361C10.3348 0.0229048 11.6665 0.0229048 12.9971 0.0604361C14.8969 0.113708 16.3334 1.50923 16.3334 3.1429ZM9.06108 1.62622C10.3538 1.58978 11.6475 1.58978 12.9402 1.62622C13.8326 1.65129 14.5556 2.31353 14.5556 3.1429V3.26094C12.1874 3.13418 9.81268 3.13418 7.44449 3.26094V3.1429C7.44449 2.31353 8.16627 1.65129 9.06108 1.62622ZM8.64034 7.83606C8.63583 7.73318 8.60837 7.6321 8.55952 7.53857C8.51068 7.44504 8.44142 7.36091 8.35569 7.29098C8.26995 7.22104 8.16943 7.16668 8.05986 7.13098C7.95029 7.09529 7.83381 7.07896 7.71708 7.08294C7.60035 7.08692 7.48565 7.11112 7.37954 7.15417C7.27342 7.19721 7.17796 7.25826 7.09861 7.33382C7.01926 7.40938 6.95757 7.49797 6.91707 7.59454C6.87657 7.69111 6.85805 7.79377 6.86256 7.89665L7.27382 17.2976C7.28294 17.5052 7.38527 17.7012 7.5583 17.8423C7.64398 17.9122 7.74444 17.9665 7.85394 18.0022C7.96344 18.0379 8.07983 18.0542 8.19649 18.0502C8.31314 18.0462 8.42776 18.022 8.53381 17.979C8.63985 17.936 8.73525 17.875 8.81454 17.7995C8.89384 17.724 8.95548 17.6354 8.99595 17.5389C9.03642 17.4424 9.05493 17.3398 9.05041 17.237L8.64034 7.83606ZM15.1352 7.89665C15.1438 7.79179 15.1285 7.68647 15.09 7.58695C15.0516 7.48743 14.9908 7.39575 14.9112 7.31738C14.8317 7.23901 14.7351 7.17555 14.6272 7.13077C14.5193 7.08599 14.4022 7.06082 14.283 7.05675C14.1638 7.05269 14.0449 7.06981 13.9334 7.10709C13.8218 7.14438 13.72 7.20107 13.6338 7.27379C13.5477 7.34651 13.479 7.43377 13.4319 7.53037C13.3848 7.62697 13.3603 7.73093 13.3597 7.83606L12.9485 17.237C12.9394 17.4448 13.0243 17.6472 13.1845 17.7998C13.3448 17.9524 13.5673 18.0427 13.803 18.0507C14.0388 18.0587 14.2685 17.9839 14.4416 17.8427C14.6148 17.7014 14.7171 17.5054 14.7263 17.2976L15.1352 7.89665Z" fill="#1F2041"/>
</svg>
