<svg width="17" height="18" viewBox="0 0 17 18" fill="none" xmlns="http://www.w3.org/2000/svg">
<path fill-rule="evenodd" clip-rule="evenodd" d="M8.25 0.75C8.44891 0.75 8.63968 0.829018 8.78033 0.96967C8.92098 1.11032 9 1.30109 9 1.5V8.25H15.75C15.9489 8.25 16.1397 8.32902 16.2803 8.46967C16.421 8.61032 16.5 8.80109 16.5 9C16.5 9.19891 16.421 9.38968 16.2803 9.53033C16.1397 9.67098 15.9489 9.75 15.75 9.75H9V16.5C9 16.6989 8.92098 16.8897 8.78033 17.0303C8.63968 17.171 8.44891 17.25 8.25 17.25C8.05109 17.25 7.86032 17.171 7.71967 17.0303C7.57902 16.8897 7.5 16.6989 7.5 16.5V9.75H0.75C0.551088 9.75 0.360322 9.67098 0.21967 9.53033C0.0790175 9.38968 0 9.19891 0 9C0 8.80109 0.0790175 8.61032 0.21967 8.46967C0.360322 8.32902 0.551088 8.25 0.75 8.25H7.5V1.5C7.5 1.30109 7.57902 1.11032 7.71967 0.96967C7.86032 0.829018 8.05109 0.75 8.25 0.75Z" fill="#1F2041"/>
</svg>
