<svg width="38" height="26" viewBox="0 0 38 26" fill="none" xmlns="http://www.w3.org/2000/svg">
<path fill-rule="evenodd" clip-rule="evenodd" d="M0.25 2.0625C0.25 1.6481 0.41462 1.25067 0.707645 0.957645C1.00067 0.66462 1.3981 0.5 1.8125 0.5H36.1875C36.6019 0.5 36.9993 0.66462 37.2924 0.957645C37.5854 1.25067 37.75 1.6481 37.75 2.0625C37.75 2.4769 37.5854 2.87433 37.2924 3.16735C36.9993 3.46038 36.6019 3.625 36.1875 3.625H1.8125C1.3981 3.625 1.00067 3.46038 0.707645 3.16735C0.41462 2.87433 0.25 2.4769 0.25 2.0625ZM0.25 13C0.25 12.5856 0.41462 12.1882 0.707645 11.8951C1.00067 11.6021 1.3981 11.4375 1.8125 11.4375H36.1875C36.6019 11.4375 36.9993 11.6021 37.2924 11.8951C37.5854 12.1882 37.75 12.5856 37.75 13C37.75 13.4144 37.5854 13.8118 37.2924 14.1049C36.9993 14.3979 36.6019 14.5625 36.1875 14.5625H1.8125C1.3981 14.5625 1.00067 14.3979 0.707645 14.1049C0.41462 13.8118 0.25 13.4144 0.25 13ZM0.25 23.9375C0.25 23.5231 0.41462 23.1257 0.707645 22.8326C1.00067 22.5396 1.3981 22.375 1.8125 22.375H36.1875C36.6019 22.375 36.9993 22.5396 37.2924 22.8326C37.5854 23.1257 37.75 23.5231 37.75 23.9375C37.75 24.3519 37.5854 24.7493 37.2924 25.0424C36.9993 25.3354 36.6019 25.5 36.1875 25.5H1.8125C1.3981 25.5 1.00067 25.3354 0.707645 25.0424C0.41462 24.7493 0.25 24.3519 0.25 23.9375Z" fill="#D4AF37"/>
</svg>
